<svg width="171" height="16" viewBox="0 0 171 16" fill="none" xmlns="http://www.w3.org/2000/svg">
  <path d="M11.3 5.36V1.3H8.18C3.36 1.3 0.7 5.06 0.7 8.62C0.7 12.54 2.94 15.24 6.54 15.24C9.6 15.24 11.44 12.86 12.32 10.78L12.02 10.58C11.38 11.6 10.18 12.9 7.76 12.9C4.96 12.9 3.6 10.26 3.6 6.88C3.6 4.24 4.6 2.12 6.94 2.12C9.02 2.12 10.38 3.68 11.04 5.36H11.3ZM17.3073 0.799999L13.5473 2.14L14.9073 3.68V13.28L13.4273 15H18.7873L17.3073 13.28V7.46C17.9473 6.6 18.7073 6.28 19.4473 6.28C20.9873 6.28 21.2073 7.26 21.2073 8.8V13.3L19.7473 15H25.1073L23.6273 13.28H23.6073V8.12C23.6073 6.24 22.6473 4.92 20.6073 4.92C19.4073 4.92 18.1073 5.54 17.3073 6.78V0.799999ZM34.4078 8.74V5.2H26.1278L27.4878 6.74V13.28L26.0078 15H31.7478L29.8878 13.28V8.98C29.8878 6.94 29.8878 5.94 31.2678 5.94C32.1878 5.94 33.3678 6.64 34.2478 8.74H34.4078ZM36.107 2.22L37.827 4.08L39.527 2.22L37.827 0.38L36.107 2.22ZM35.327 6.34L36.687 7.88V13.28L35.207 15H40.567L39.087 13.28V5L35.327 6.34ZM41.5742 11.22L41.7542 14.74C42.5142 15.06 43.8742 15.2 44.8742 15.2C46.4542 15.2 48.7942 14.3 48.7942 11.98C48.7942 8.32 43.3142 9.22 43.3142 7.16C43.3142 6.38 43.7942 5.86 44.6342 5.84C45.9142 5.82 47.1142 6.78 47.8342 8.08L47.9542 8.1V4.78L47.2142 5.2H45.0142C42.9742 5.2 41.6742 6.5 41.6742 7.98C41.6742 11.94 46.9742 10.78 46.9742 13.14C46.9742 14.04 46.2942 14.44 45.4742 14.44C43.8342 14.44 42.2542 12.94 41.7342 11.22H41.5742ZM53.2169 2.36L49.4969 5.2L50.8169 6.46V12.16C50.8169 14.44 51.9969 15.24 53.3769 15.24C54.9969 15.24 56.0769 14.42 57.0369 12.8L56.7969 12.48C56.3569 13.34 55.4369 13.64 54.8369 13.64C53.6569 13.64 53.2169 13.12 53.2169 11.2V6.28H56.6169L57.0569 5.2H53.2169V2.36ZM66.9153 9.34H66.9353L66.9153 9.3C66.8953 6.6 65.4353 5 63.0553 5C59.7953 5 58.1953 7.96 58.1953 10.54C58.1953 12.94 59.6753 15.28 62.2953 15.28C64.6753 15.28 66.0953 13.44 66.8153 11.62L66.5153 11.5C66.2153 12.34 65.0153 13.02 63.6553 13.02C62.0953 13.02 60.7153 11.94 60.4953 9.36H66.9153V9.34ZM64.3353 8.76H60.4553V8.62C60.4553 7.42 61.0753 5.6 62.5953 5.6C63.4753 5.6 64.3353 6.44 64.3353 8.58V8.76ZM69.4191 13.28L67.9391 15H73.2991L71.8191 13.28V0.799999L68.0591 1.94L69.4191 3.48V4.24L68.0591 4.66L69.4191 6.2V13.28ZM75.5714 13.28L74.0914 15H79.4514L77.9714 13.28V0.799999L74.2114 1.94L75.5714 3.48V4.24L74.2114 4.66L75.5714 6.2V13.28ZM86.2238 15H90.1237L88.6438 13.7H88.6238V6.92L89.0638 5.2H80.8238V8.4H80.9638C81.9838 6.88 82.9438 5.76 84.5438 5.76C86.1838 5.76 86.2238 7 86.2238 8.6C82.7638 9.82 80.3438 10.86 80.3438 12.9C80.3438 14.52 81.3638 15.2 82.7438 15.2C84.0638 15.2 85.4638 14.06 86.2238 13.32V15ZM86.2238 12.78C85.7237 13.3 85.1038 13.62 84.4838 13.62C83.6438 13.62 82.9838 13.2 82.9838 12.24C82.9838 11.28 83.0838 10.42 86.2238 9.16V12.78ZM106.424 10.68H106.224L103.584 14.1H99.4242V3.4L100.944 1.3H95.6242L96.8242 3.38V12.88L95.6242 15H106.204L106.424 10.68ZM116.251 9.34H116.271L116.251 9.3C116.231 6.6 114.771 5 112.391 5C109.131 5 107.531 7.96 107.531 10.54C107.531 12.94 109.011 15.28 111.631 15.28C114.011 15.28 115.431 13.44 116.151 11.62L115.851 11.5C115.551 12.34 114.351 13.02 112.991 13.02C111.431 13.02 110.051 11.94 109.831 9.36H116.251V9.34ZM113.671 8.76H109.791V8.62C109.791 7.42 110.411 5.6 111.931 5.6C112.811 5.6 113.671 6.44 113.671 8.58V8.76ZM123.704 5.2L125.164 6.48L122.744 12.32L122.504 11.64L120.404 6.48L121.864 5.2H116.584L117.704 6.46L121.704 15.44H122.104L122.184 15.28L126.124 6.46L127.244 5.2H123.704ZM128.548 2.22L130.268 4.08L131.968 2.22L130.268 0.38L128.548 2.22ZM127.768 6.34L129.128 7.88V13.28L127.648 15H133.008L131.528 13.28V5L127.768 6.34ZM142.736 9.34H142.756L142.736 9.3C142.716 6.6 141.256 5 138.876 5C135.616 5 134.016 7.96 134.016 10.54C134.016 12.94 135.496 15.28 138.116 15.28C140.496 15.28 141.916 13.44 142.636 11.62L142.336 11.5C142.036 12.34 140.836 13.02 139.476 13.02C137.916 13.02 136.536 11.94 136.316 9.36H142.736V9.34ZM140.156 8.76H136.276V8.62C136.276 7.42 136.896 5.6 138.416 5.6C139.296 5.6 140.156 6.44 140.156 8.58V8.76ZM147.359 5.18H143.459L144.959 6.92V12C144.959 13.88 145.919 15.2 147.959 15.2C149.379 15.2 150.299 14.52 151.019 13.52V15.12L154.779 15L153.419 13.36V5.18H149.539L151.019 6.92V12.9C150.499 13.5 149.799 13.84 149.119 13.84C147.579 13.84 147.359 12.86 147.359 11.32V5.18ZM166.856 15L165.176 13.7L161.976 9.5L164.516 6.46L166.296 5.2H162.096L163.196 6.48L161.416 8.76L159.676 6.48L160.956 5.2H155.496L156.956 6.46L159.876 10.3L157.056 13.74L155.276 15H159.456L158.356 13.72L160.476 11.1L162.436 13.68L161.156 15H166.856Z" fill="#40404C"/>
  <path d="M166.955 13.68L168.675 15.52L170.375 13.68L168.675 11.82L166.955 13.68Z" fill="#E10456"/>
</svg>
